<svg xmlns="http://www.w3.org/2000/svg" viewBox="0 0 128 128" fill="none">
  <path d="M35 40h58c11 0 20 9 20 20v36c0 11-9 20-20 20H35c-11 0-20-9-20-20V60c0-11 9-20 20-20Z" fill="#F6FFFF"/>
  <path d="M44 41V28c0-8 7-15 15-15h10c8 0 15 7 15 15v13H72V29c0-3-2-5-5-5h-6c-3 0-5 2-5 5v12H44Z" fill="#F6FFFF"/>
  <path d="M64 83c-16-12-27-22-27-35 0-9 7-16 16-16 5 0 9 2 12 6 3-4 7-6 12-6 9 0 16 7 16 16 0 13-12 23-29 35Z" fill="#16B8BE"/>
  <path d="M18 73h28l7-15 10 33 9-25 7 7h31" stroke="#F6FFFF" stroke-width="8" stroke-linecap="round" stroke-linejoin="round"/>
  <path d="M18 73h28l7-15 10 33 9-25 7 7h31" stroke="#16B8BE" stroke-width="4" stroke-linecap="round" stroke-linejoin="round"/>
  <rect x="75" y="72" width="43" height="43" rx="13" fill="#F6FFFF"/>
  <path d="M87 86v10M106 86v10M88 91h17" stroke="#16B8BE" stroke-width="5" stroke-linecap="round"/>
  <path d="m88 101 7 7 15-18" stroke="#16B8BE" stroke-width="7" stroke-linecap="round" stroke-linejoin="round"/>
</svg>
