<svg xmlns="http://www.w3.org/2000/svg" viewBox="0 0 708 1536">
  <defs>
    <linearGradient id="top" x1="0" y1="0" x2="1" y2="1">
      <stop stop-color="#0a5b64"/><stop offset="1" stop-color="#10232e"/>
    </linearGradient>
  </defs>
  <rect width="708" height="1536" fill="#0b121b"/>
  <rect width="708" height="420" fill="url(#top)"/>
  <text x="36" y="130" fill="#f6fbff" font-family="Manrope, Arial" font-size="58" font-weight="800">Контроль</text>
  <text x="36" y="186" fill="#bed0d7" font-family="Manrope, Arial" font-size="27" font-weight="700">Остатки и сроки годности</text>
  <g font-family="Manrope, Arial" font-weight="800">
    <rect x="36" y="270" width="142" height="92" rx="30" fill="#25424d"/><text x="91" y="313" fill="#22c8d1" font-size="34">2</text><text x="72" y="344" fill="#d4e1e7" font-size="18">мало</text>
    <rect x="196" y="270" width="142" height="92" rx="30" fill="#25424d"/><text x="251" y="313" fill="#f3b23d" font-size="34">1</text><text x="222" y="344" fill="#d4e1e7" font-size="18">истекает</text>
    <rect x="356" y="270" width="142" height="92" rx="30" fill="#25424d"/><text x="411" y="313" fill="#f06373" font-size="34">0</text><text x="396" y="344" fill="#d4e1e7" font-size="18">истек</text>
  </g>
  <rect x="36" y="472" width="636" height="134" rx="36" fill="#111c26"/>
  <rect x="64" y="500" width="78" height="78" rx="24" fill="#eafaff"/>
  <path d="M91 520h24v42H91zM86 520h34" stroke="#22c8d1" stroke-width="5" fill="none" stroke-linecap="round"/>
  <text x="170" y="528" fill="#f5fbff" font-family="Manrope, Arial" font-size="31" font-weight="800">Эдарби</text>
  <text x="170" y="566" fill="#9cadb8" font-family="Manrope, Arial" font-size="23" font-weight="700">Осталось: 4 дня</text>
  <rect x="520" y="512" width="98" height="42" rx="20" fill="#f3b23d"/>
  <text x="542" y="541" fill="#241909" font-family="Manrope, Arial" font-size="19" font-weight="900">скоро</text>
  <rect x="36" y="636" width="636" height="134" rx="36" fill="#111c26"/>
  <rect x="64" y="664" width="78" height="78" rx="24" fill="#eafaff"/>
  <circle cx="103" cy="703" r="24" fill="none" stroke="#22c8d1" stroke-width="5"/>
  <text x="170" y="692" fill="#f5fbff" font-family="Manrope, Arial" font-size="31" font-weight="800">Небилет</text>
  <text x="170" y="730" fill="#9cadb8" font-family="Manrope, Arial" font-size="23" font-weight="700">Осталось: 17 шт</text>
  <rect x="520" y="676" width="98" height="42" rx="20" fill="#dff8ea"/>
  <text x="544" y="705" fill="#24513a" font-family="Manrope, Arial" font-size="19" font-weight="900">норма</text>
  <rect x="36" y="800" width="636" height="134" rx="36" fill="#111c26"/>
  <rect x="64" y="828" width="78" height="78" rx="24" fill="#eafaff"/>
  <path d="M88 870h30M103 855v30" stroke="#22c8d1" stroke-width="6" stroke-linecap="round"/>
  <text x="170" y="856" fill="#f5fbff" font-family="Manrope, Arial" font-size="31" font-weight="800">Ибуклин</text>
  <text x="170" y="894" fill="#9cadb8" font-family="Manrope, Arial" font-size="23" font-weight="700">Осталось: 2 шт</text>
  <rect x="520" y="840" width="98" height="42" rx="20" fill="#f06373"/>
  <text x="546" y="869" fill="#fff" font-family="Manrope, Arial" font-size="19" font-weight="900">мало</text>
  <rect x="70" y="1040" width="568" height="154" rx="38" fill="#12222d" stroke="#28404d"/>
  <text x="104" y="1100" fill="#f5fbff" font-family="Manrope, Arial" font-size="30" font-weight="800">Список внимания</text>
  <text x="104" y="1144" fill="#98a9b3" font-family="Manrope, Arial" font-size="23" font-weight="700">Препараты, которые нужно купить или заменить</text>
</svg>
