<svg xmlns="http://www.w3.org/2000/svg" viewBox="0 0 96 96">
  <rect width="96" height="96" rx="24" fill="#111827"/>
  <rect x="20" y="20" width="25" height="25" rx="8" fill="#19B5FE"/>
  <rect x="51" y="20" width="25" height="25" rx="8" fill="#7B61FF"/>
  <rect x="20" y="51" width="25" height="25" rx="8" fill="#22C8D1"/>
  <rect x="51" y="51" width="25" height="25" rx="8" fill="#35D07F"/>
  <path d="M30 32h7c4 0 7 2.4 7 6 0 2.4-1.2 4.2-3.3 5.2l4.1 7.8h-6.4l-3.3-6.8h-2.6V51H26V32h4Zm2.5 8.2h3.1c1.5 0 2.4-.7 2.4-2s-.9-2-2.4-2h-3.1v4Z" fill="#fff"/>
</svg>
