<svg xmlns="http://www.w3.org/2000/svg" viewBox="0 0 96 96">
  <rect width="96" height="96" rx="24" fill="#111827"/>
  <path d="M58.8 22.6c3.6-4.3 6-10.1 5.4-15.9-5.2.2-11.4 3.4-15.1 7.8-3.4 3.9-6.3 9.9-5.5 15.6 5.7.5 11.5-2.9 15.2-7.5Z" fill="#fff"/>
  <path d="M72.6 67.1c-2 4.5-3 6.5-5.6 10.5-3.6 5.5-8.7 12.3-15 12.4-5.6.1-7-3.7-14.7-3.6-7.6.1-9.2 3.7-14.8 3.6-6.3-.1-11.1-6.2-14.8-11.7C-2.4 62.9 2.6 39.9 17.6 39c5.8-.4 10.1 4 14.7 4 4.5 0 13-4.9 21.9-4.2 3.7.2 14.2 1.5 20.9 11.4-17.8 9.8-14.9 34.5-2.5 16.9Z" fill="#fff"/>
</svg>
