<svg xmlns="http://www.w3.org/2000/svg" viewBox="0 0 96 96">
  <rect width="96" height="96" rx="24" fill="#111827"/>
  <path d="M18 13.6c-1.3 1.4-2 3.5-2 6.1v56.6c0 2.6.7 4.7 2 6.1l.2.2L50 50.8v-5.6L18.2 13.4l-.2.2Z" fill="#00A0FF"/>
  <path d="m60.6 61.4-10.6-10.6v-5.6l10.6-10.6.2.1 12.6 7.2c3.6 2.1 3.6 5.5 0 7.6l-12.6 7.2-.2.7Z" fill="#FFCE00"/>
  <path d="m60.8 61.3-10.8-10.8-31.8 31.8c2 2.2 5.3 2.5 9.1.3l33.5-21.3Z" fill="#00F076"/>
  <path d="M60.8 34.7 27.3 13.4c-3.8-2.2-7.1-1.9-9.1.3L50 45.5l10.8-10.8Z" fill="#FF3D00"/>
</svg>
